

Release info:

General
Format                                   : Matroska
Format version                           : Version 2
File size                                : 444 MiB
Duration                                 : 1h 37mn
Overall bit rate                         : 635 Kbps

Video
ID                                       : 1
Format                                   : AVC
Format/Info                              : Advanced Video Codec
Format profile                           : High@L3.0
Format settings, CABAC                   : Yes
Format settings, ReFrames                : 4 frames
Muxing mode                              : Header stripping
Codec ID                                 : V_MPEG4/ISO/AVC
Duration                                 : 1h 37mn
Bit rate                                 : 506 Kbps
Width                                    : 720 pixels
Height                                   : 304 pixels
Display aspect ratio                     : 2.35:1
Frame rate mode                          : Constant
Frame rate                               : 25.000 fps
Color space                              : YUV
Chroma subsampling                       : 4:2:0
Bit depth                                : 8 bits
Scan type                                : Progressive
Bits/(Pixel*Frame)                       : 0.092
Stream size                              : 345 MiB (78%)
Language                                 : English
Default                                  : Yes
Forced                                   : No

Audio
ID                                       : 2
Format                                   : MPEG Audio
Format version                           : Version 1
Format profile                           : Layer 3
Mode                                     : Joint stereo
Mode extension                           : MS Stereo
Muxing mode                              : Header stripping
Codec ID                                 : A_MPEG/L3
Codec ID/Hint                            : MP3
Duration                                 : 1h 37mn
Bit rate mode                            : Constant
Bit rate                                 : 128 Kbps
Channel(s)                               : 2 channels
Sampling rate                            : 44.1 KHz
Compression mode                         : Lossy
Stream size                              : 89.4 MiB (20%)
Language                                 : English
Default                                  : Yes
Forced                                   : No



Source:
credit to original movie ripper 1MPERiUM (Thanks)

IMDB Info:

Set in 1990s Belfast, an active member of the IRA becomes an informant for MI5 in order to protect her son's welfare.

Director: James Marsh
Writers: Tom Bradby (novel), Tom Bradby (screenplay)
Stars: Clive Owen, Andrea Riseborough and Gillian Anderson

Genres: Thriller
 
http://www.imdb.com/title/tt1770734/

Screen Shot:
 
http://www.shotpix.com/images/49631854860176242307.png 
http://www.shotpix.com/images/03204772920502790047.png 
http://www.shotpix.com/images/28949034005656739126.png 
http://www.shotpix.com/images/48076473584289575023.png 
http://www.shotpix.com/images/23686309940579814934.png 
http://www.shotpix.com/images/39928735451595740856.png